<svg width="550" height="400" viewBox="0 0 550 400" fill="none" xmlns="http://www.w3.org/2000/svg">
<path d="M313.232 173.896C313.232 176.649 312.646 179.169 311.474 181.453C310.303 183.738 308.75 185.686 306.817 187.297C304.884 188.908 302.687 190.167 300.226 191.075C297.766 191.983 295.247 192.437 292.669 192.437C288.979 192.437 285.361 191.412 281.817 189.362C278.273 187.311 275.446 184.236 273.337 180.135L279.225 177.587C280.748 180.399 282.754 182.493 285.244 183.87C287.734 185.246 290.209 185.935 292.669 185.935C294.368 185.935 296.052 185.642 297.722 185.056C299.392 184.47 300.9 183.65 302.248 182.596C303.595 181.541 304.693 180.282 305.543 178.817C306.392 177.352 306.817 175.712 306.817 173.896C306.817 172.49 306.568 171.245 306.07 170.162C305.572 169.078 304.884 168.111 304.005 167.262C303.126 166.412 302.101 165.651 300.929 164.977C299.758 164.303 298.528 163.644 297.239 163C296.301 162.59 295.379 162.209 294.471 161.858C293.563 161.506 292.611 161.096 291.615 160.627C289.682 159.866 287.807 159.002 285.991 158.035C284.175 157.068 282.535 155.926 281.07 154.608C279.606 153.29 278.434 151.723 277.555 149.907C276.677 148.091 276.237 145.894 276.237 143.316C276.237 140.739 276.735 138.322 277.731 136.067C278.727 133.811 280.06 131.849 281.729 130.179C283.399 128.51 285.361 127.192 287.617 126.225C289.872 125.258 292.259 124.775 294.778 124.775C297.766 124.775 300.637 125.537 303.39 127.06C306.143 128.583 308.633 130.926 310.859 134.09L304.796 136.726C303.39 134.851 301.837 133.475 300.139 132.596C298.44 131.717 296.653 131.278 294.778 131.278C293.138 131.278 291.586 131.6 290.121 132.244C288.657 132.889 287.368 133.767 286.255 134.881C285.142 135.994 284.263 137.268 283.618 138.703C282.974 140.138 282.652 141.676 282.652 143.316C282.652 144.722 282.901 145.953 283.399 147.007C283.897 148.061 284.585 148.999 285.464 149.819C286.343 150.639 287.368 151.386 288.539 152.06C289.711 152.733 290.941 153.363 292.23 153.949C294.515 154.945 296.887 155.941 299.348 156.937C301.808 157.933 304.064 159.133 306.114 160.539C308.164 161.945 309.863 163.703 311.211 165.812C312.558 167.921 313.232 170.616 313.232 173.896Z" fill="#2D2926"/>
<path d="M356.992 132.069H339.681V191.559H333.618V132.069H316.307V125.654H356.992V132.069Z" fill="#2D2926"/>
<path d="M398.908 191.559H365.34V125.654H398.908V132.069H371.931V155.355H395.481V161.857H371.931V185.144H398.908V191.559Z" fill="#2D2926"/>
<path d="M451.104 144.107C451.104 146.685 450.621 149.087 449.654 151.313C448.688 153.539 447.37 155.472 445.7 157.112C444.031 158.753 442.083 160.056 439.857 161.023C437.63 161.989 435.258 162.473 432.739 162.473H419.47V191.559H412.967V125.654H432.739C435.258 125.654 437.63 126.137 439.857 127.104C442.083 128.07 444.031 129.388 445.7 131.058C447.37 132.728 448.688 134.69 449.654 136.945C450.621 139.201 451.104 141.588 451.104 144.107ZM444.777 144.107C444.777 142.467 444.47 140.914 443.855 139.45C443.24 137.985 442.376 136.711 441.263 135.627C440.149 134.544 438.861 133.68 437.396 133.035C435.932 132.391 434.379 132.069 432.739 132.069H419.47V155.97H432.739C434.379 155.97 435.932 155.662 437.396 155.047C438.861 154.432 440.149 153.583 441.263 152.499C442.376 151.415 443.24 150.156 443.855 148.72C444.47 147.285 444.777 145.747 444.777 144.107Z" fill="#2D2926"/>
<path d="M315.516 255.805C315.516 258.383 314.974 260.843 313.891 263.186C312.807 265.53 311.313 267.595 309.409 269.381C307.505 271.168 305.264 272.589 302.687 273.643C300.109 274.698 297.356 275.225 294.427 275.225C291.498 275.225 288.759 274.698 286.211 273.643C283.662 272.589 281.436 271.168 279.532 269.381C277.628 267.595 276.12 265.53 275.007 263.186C273.894 260.843 273.337 258.383 273.337 255.805V208.441H279.664V255.805C279.664 257.445 280.03 259.042 280.763 260.594C281.495 262.146 282.505 263.538 283.794 264.768C285.083 265.998 286.635 266.979 288.451 267.712C290.267 268.444 292.259 268.81 294.427 268.81C296.653 268.81 298.674 268.444 300.49 267.712C302.306 266.979 303.859 265.998 305.147 264.768C306.436 263.538 307.432 262.146 308.135 260.594C308.838 259.042 309.189 257.445 309.189 255.805V208.441H315.516V255.805Z" fill="#2D2926"/>
<path d="M369.031 226.895C369.031 229.472 368.548 231.874 367.581 234.1C366.614 236.326 365.296 238.26 363.627 239.9C361.957 241.54 360.009 242.844 357.783 243.81C355.557 244.777 353.185 245.26 350.666 245.26H337.397V274.346H330.894V208.441H350.666C353.185 208.441 355.557 208.925 357.783 209.891C360.009 210.858 361.957 212.176 363.627 213.846C365.296 215.515 366.614 217.478 367.581 219.733C368.548 221.988 369.031 224.376 369.031 226.895ZM362.704 226.895C362.704 225.254 362.397 223.702 361.781 222.237C361.166 220.773 360.302 219.499 359.189 218.415C358.076 217.331 356.787 216.467 355.323 215.823C353.858 215.178 352.306 214.856 350.666 214.856H337.397V238.758H350.666C352.306 238.758 353.858 238.45 355.323 237.835C356.787 237.22 358.076 236.37 359.189 235.287C360.302 234.203 361.166 232.943 361.781 231.508C362.397 230.073 362.704 228.535 362.704 226.895Z" fill="#2D2926"/>
<path d="M208.306 235.168C208.306 220.085 196.036 207.815 180.953 207.815H157.508C133.803 207.815 114.526 188.538 114.526 164.832C114.526 141.127 133.803 121.85 157.508 121.85H197.886V106.22H157.508C125.18 106.22 98.8957 132.504 98.8957 164.832C98.8957 197.161 125.18 223.445 157.508 223.445H180.953C187.414 223.445 192.676 228.707 192.676 235.168C192.676 241.628 187.414 246.89 180.953 246.89H104.106V293.78H119.736V262.52H180.953C196.036 262.52 208.306 250.251 208.306 235.168ZM180.953 176.555H157.508C151.048 176.555 145.786 171.293 145.786 164.832C145.786 158.372 151.048 153.11 157.508 153.11H229.146V106.22H213.516V137.48H157.508C142.425 137.48 130.156 149.749 130.156 164.832C130.156 179.915 142.425 192.185 157.508 192.185H180.953C204.659 192.185 223.936 211.462 223.936 235.168C223.936 258.873 204.659 278.15 180.953 278.15H135.366V293.78H180.953C213.282 293.78 239.566 267.496 239.566 235.168C239.566 202.84 213.282 176.555 180.953 176.555Z" fill="#2D2926"/>
<path d="M313.232 173.896C313.232 176.649 312.646 179.169 311.474 181.453C310.303 183.738 308.75 185.686 306.817 187.297C304.884 188.908 302.687 190.167 300.226 191.075C297.766 191.983 295.247 192.437 292.669 192.437C288.979 192.437 285.361 191.412 281.817 189.362C278.273 187.311 275.446 184.236 273.337 180.135L279.225 177.587C280.748 180.399 282.754 182.493 285.244 183.87C287.734 185.246 290.209 185.935 292.669 185.935C294.368 185.935 296.052 185.642 297.722 185.056C299.392 184.47 300.9 183.65 302.248 182.596C303.595 181.541 304.693 180.282 305.543 178.817C306.392 177.352 306.817 175.712 306.817 173.896C306.817 172.49 306.568 171.245 306.07 170.162C305.572 169.078 304.884 168.111 304.005 167.262C303.126 166.412 302.101 165.651 300.929 164.977C299.758 164.303 298.528 163.644 297.239 163C296.301 162.59 295.379 162.209 294.471 161.858C293.563 161.506 292.611 161.096 291.615 160.627C289.682 159.866 287.807 159.002 285.991 158.035C284.175 157.068 282.535 155.926 281.07 154.608C279.606 153.29 278.434 151.723 277.555 149.907C276.677 148.091 276.237 145.894 276.237 143.316C276.237 140.739 276.735 138.322 277.731 136.067C278.727 133.811 280.06 131.849 281.729 130.179C283.399 128.51 285.361 127.192 287.617 126.225C289.872 125.258 292.259 124.775 294.778 124.775C297.766 124.775 300.637 125.537 303.39 127.06C306.143 128.583 308.633 130.926 310.859 134.09L304.796 136.726C303.39 134.851 301.837 133.475 300.139 132.596C298.44 131.717 296.653 131.278 294.778 131.278C293.138 131.278 291.586 131.6 290.121 132.244C288.657 132.889 287.368 133.767 286.255 134.881C285.142 135.994 284.263 137.268 283.618 138.703C282.974 140.138 282.652 141.676 282.652 143.316C282.652 144.722 282.901 145.953 283.399 147.007C283.897 148.061 284.585 148.999 285.464 149.819C286.343 150.639 287.368 151.386 288.539 152.06C289.711 152.733 290.941 153.363 292.23 153.949C294.515 154.945 296.887 155.941 299.348 156.937C301.808 157.933 304.064 159.133 306.114 160.539C308.164 161.945 309.863 163.703 311.211 165.812C312.558 167.921 313.232 170.616 313.232 173.896Z" fill="#2D2926"/>
<path d="M356.992 132.069H339.681V191.559H333.618V132.069H316.307V125.654H356.992V132.069Z" fill="#2D2926"/>
<path d="M398.908 191.559H365.34V125.654H398.908V132.069H371.931V155.355H395.481V161.857H371.931V185.144H398.908V191.559Z" fill="#2D2926"/>
<path d="M451.104 144.107C451.104 146.685 450.621 149.087 449.654 151.313C448.688 153.539 447.37 155.472 445.7 157.112C444.031 158.753 442.083 160.056 439.857 161.023C437.63 161.989 435.258 162.473 432.739 162.473H419.47V191.559H412.967V125.654H432.739C435.258 125.654 437.63 126.137 439.857 127.104C442.083 128.07 444.031 129.388 445.7 131.058C447.37 132.728 448.688 134.69 449.654 136.945C450.621 139.201 451.104 141.588 451.104 144.107ZM444.777 144.107C444.777 142.467 444.47 140.914 443.855 139.45C443.24 137.985 442.376 136.711 441.263 135.627C440.149 134.544 438.861 133.68 437.396 133.035C435.932 132.391 434.379 132.069 432.739 132.069H419.47V155.97H432.739C434.379 155.97 435.932 155.662 437.396 155.047C438.861 154.432 440.149 153.583 441.263 152.499C442.376 151.415 443.24 150.156 443.855 148.72C444.47 147.285 444.777 145.747 444.777 144.107Z" fill="#2D2926"/>
<path d="M315.516 255.805C315.516 258.383 314.974 260.843 313.891 263.186C312.807 265.53 311.313 267.595 309.409 269.381C307.505 271.168 305.264 272.589 302.687 273.643C300.109 274.698 297.356 275.225 294.427 275.225C291.498 275.225 288.759 274.698 286.211 273.643C283.662 272.589 281.436 271.168 279.532 269.381C277.628 267.595 276.12 265.53 275.007 263.186C273.894 260.843 273.337 258.383 273.337 255.805V208.441H279.664V255.805C279.664 257.445 280.03 259.042 280.763 260.594C281.495 262.146 282.505 263.538 283.794 264.768C285.083 265.998 286.635 266.979 288.451 267.712C290.267 268.444 292.259 268.81 294.427 268.81C296.653 268.81 298.674 268.444 300.49 267.712C302.306 266.979 303.859 265.998 305.147 264.768C306.436 263.538 307.432 262.146 308.135 260.594C308.838 259.042 309.189 257.445 309.189 255.805V208.441H315.516V255.805Z" fill="#2D2926"/>
<path d="M369.031 226.895C369.031 229.472 368.548 231.874 367.581 234.1C366.614 236.326 365.296 238.26 363.627 239.9C361.957 241.54 360.009 242.844 357.783 243.81C355.557 244.777 353.185 245.26 350.666 245.26H337.397V274.346H330.894V208.441H350.666C353.185 208.441 355.557 208.925 357.783 209.891C360.009 210.858 361.957 212.176 363.627 213.846C365.296 215.515 366.614 217.478 367.581 219.733C368.548 221.988 369.031 224.376 369.031 226.895ZM362.704 226.895C362.704 225.254 362.397 223.702 361.781 222.237C361.166 220.773 360.302 219.499 359.189 218.415C358.076 217.331 356.787 216.467 355.323 215.823C353.858 215.178 352.306 214.856 350.666 214.856H337.397V238.758H350.666C352.306 238.758 353.858 238.45 355.323 237.835C356.787 237.22 358.076 236.37 359.189 235.287C360.302 234.203 361.166 232.943 361.781 231.508C362.397 230.073 362.704 228.535 362.704 226.895Z" fill="#2D2926"/>
<path d="M208.306 235.168C208.306 220.085 196.036 207.815 180.953 207.815H157.508C133.803 207.815 114.526 188.538 114.526 164.832C114.526 141.127 133.803 121.85 157.508 121.85H197.886V106.22H157.508C125.18 106.22 98.8957 132.504 98.8957 164.832C98.8957 197.161 125.18 223.445 157.508 223.445H180.953C187.414 223.445 192.676 228.707 192.676 235.168C192.676 241.628 187.414 246.89 180.953 246.89H104.106V293.78H119.736V262.52H180.953C196.036 262.52 208.306 250.251 208.306 235.168ZM180.953 176.555H157.508C151.048 176.555 145.786 171.293 145.786 164.832C145.786 158.372 151.048 153.11 157.508 153.11H229.146V106.22H213.516V137.48H157.508C142.425 137.48 130.156 149.749 130.156 164.832C130.156 179.915 142.425 192.185 157.508 192.185H180.953C204.659 192.185 223.936 211.462 223.936 235.168C223.936 258.873 204.659 278.15 180.953 278.15H135.366V293.78H180.953C213.282 293.78 239.566 267.496 239.566 235.168C239.566 202.84 213.282 176.555 180.953 176.555Z" fill="#2D2926"/>
<path d="M313.232 173.896C313.232 176.649 312.646 179.169 311.474 181.453C310.303 183.738 308.75 185.686 306.817 187.297C304.884 188.908 302.687 190.167 300.226 191.075C297.766 191.983 295.247 192.437 292.669 192.437C288.979 192.437 285.361 191.412 281.817 189.362C278.273 187.311 275.446 184.236 273.337 180.135L279.225 177.587C280.748 180.399 282.754 182.493 285.244 183.87C287.734 185.246 290.209 185.935 292.669 185.935C294.368 185.935 296.052 185.642 297.722 185.056C299.392 184.47 300.9 183.65 302.248 182.596C303.595 181.541 304.693 180.282 305.543 178.817C306.392 177.352 306.817 175.712 306.817 173.896C306.817 172.49 306.568 171.245 306.07 170.162C305.572 169.078 304.884 168.111 304.005 167.262C303.126 166.412 302.101 165.651 300.929 164.977C299.758 164.303 298.528 163.644 297.239 163C296.301 162.59 295.379 162.209 294.471 161.858C293.563 161.506 292.611 161.096 291.615 160.627C289.682 159.866 287.807 159.002 285.991 158.035C284.175 157.068 282.535 155.926 281.07 154.608C279.606 153.29 278.434 151.723 277.555 149.907C276.677 148.091 276.237 145.894 276.237 143.316C276.237 140.739 276.735 138.322 277.731 136.067C278.727 133.811 280.06 131.849 281.729 130.179C283.399 128.51 285.361 127.192 287.617 126.225C289.872 125.258 292.259 124.775 294.778 124.775C297.766 124.775 300.637 125.537 303.39 127.06C306.143 128.583 308.633 130.926 310.859 134.09L304.796 136.726C303.39 134.851 301.837 133.475 300.139 132.596C298.44 131.717 296.653 131.278 294.778 131.278C293.138 131.278 291.586 131.6 290.121 132.244C288.657 132.889 287.368 133.767 286.255 134.881C285.142 135.994 284.263 137.268 283.618 138.703C282.974 140.138 282.652 141.676 282.652 143.316C282.652 144.722 282.901 145.953 283.399 147.007C283.897 148.061 284.585 148.999 285.464 149.819C286.343 150.639 287.368 151.386 288.539 152.06C289.711 152.733 290.941 153.363 292.23 153.949C294.515 154.945 296.887 155.941 299.348 156.937C301.808 157.933 304.064 159.133 306.114 160.539C308.164 161.945 309.863 163.703 311.211 165.812C312.558 167.921 313.232 170.616 313.232 173.896Z" fill="#2D2926"/>
<path d="M356.992 132.069H339.681V191.559H333.618V132.069H316.307V125.654H356.992V132.069Z" fill="#2D2926"/>
<path d="M398.908 191.559H365.34V125.654H398.908V132.069H371.931V155.355H395.481V161.857H371.931V185.144H398.908V191.559Z" fill="#2D2926"/>
<path d="M451.104 144.107C451.104 146.685 450.621 149.087 449.654 151.313C448.688 153.539 447.37 155.472 445.7 157.112C444.031 158.753 442.083 160.056 439.857 161.023C437.63 161.989 435.258 162.473 432.739 162.473H419.47V191.559H412.967V125.654H432.739C435.258 125.654 437.63 126.137 439.857 127.104C442.083 128.07 444.031 129.388 445.7 131.058C447.37 132.728 448.688 134.69 449.654 136.945C450.621 139.201 451.104 141.588 451.104 144.107ZM444.777 144.107C444.777 142.467 444.47 140.914 443.855 139.45C443.24 137.985 442.376 136.711 441.263 135.627C440.149 134.544 438.861 133.68 437.396 133.035C435.932 132.391 434.379 132.069 432.739 132.069H419.47V155.97H432.739C434.379 155.97 435.932 155.662 437.396 155.047C438.861 154.432 440.149 153.583 441.263 152.499C442.376 151.415 443.24 150.156 443.855 148.72C444.47 147.285 444.777 145.747 444.777 144.107Z" fill="#2D2926"/>
<path d="M315.516 255.805C315.516 258.383 314.974 260.843 313.891 263.186C312.807 265.53 311.313 267.595 309.409 269.381C307.505 271.168 305.264 272.589 302.687 273.643C300.109 274.698 297.356 275.225 294.427 275.225C291.498 275.225 288.759 274.698 286.211 273.643C283.662 272.589 281.436 271.168 279.532 269.381C277.628 267.595 276.12 265.53 275.007 263.186C273.894 260.843 273.337 258.383 273.337 255.805V208.441H279.664V255.805C279.664 257.445 280.03 259.042 280.763 260.594C281.495 262.146 282.505 263.538 283.794 264.768C285.083 265.998 286.635 266.979 288.451 267.712C290.267 268.444 292.259 268.81 294.427 268.81C296.653 268.81 298.674 268.444 300.49 267.712C302.306 266.979 303.859 265.998 305.147 264.768C306.436 263.538 307.432 262.146 308.135 260.594C308.838 259.042 309.189 257.445 309.189 255.805V208.441H315.516V255.805Z" fill="#2D2926"/>
<path d="M369.031 226.895C369.031 229.472 368.548 231.874 367.581 234.1C366.614 236.326 365.296 238.26 363.627 239.9C361.957 241.54 360.009 242.844 357.783 243.81C355.557 244.777 353.185 245.26 350.666 245.26H337.397V274.346H330.894V208.441H350.666C353.185 208.441 355.557 208.925 357.783 209.891C360.009 210.858 361.957 212.176 363.627 213.846C365.296 215.515 366.614 217.478 367.581 219.733C368.548 221.988 369.031 224.376 369.031 226.895ZM362.704 226.895C362.704 225.254 362.397 223.702 361.781 222.237C361.166 220.773 360.302 219.499 359.189 218.415C358.076 217.331 356.787 216.467 355.323 215.823C353.858 215.178 352.306 214.856 350.666 214.856H337.397V238.758H350.666C352.306 238.758 353.858 238.45 355.323 237.835C356.787 237.22 358.076 236.37 359.189 235.287C360.302 234.203 361.166 232.943 361.781 231.508C362.397 230.073 362.704 228.535 362.704 226.895Z" fill="#2D2926"/>
<path d="M208.306 235.168C208.306 220.085 196.036 207.815 180.953 207.815H157.508C133.803 207.815 114.526 188.538 114.526 164.832C114.526 141.127 133.803 121.85 157.508 121.85H197.886V106.22H157.508C125.18 106.22 98.8957 132.504 98.8957 164.832C98.8957 197.161 125.18 223.445 157.508 223.445H180.953C187.414 223.445 192.676 228.707 192.676 235.168C192.676 241.628 187.414 246.89 180.953 246.89H104.106V293.78H119.736V262.52H180.953C196.036 262.52 208.306 250.251 208.306 235.168ZM180.953 176.555H157.508C151.048 176.555 145.786 171.293 145.786 164.832C145.786 158.372 151.048 153.11 157.508 153.11H229.146V106.22H213.516V137.48H157.508C142.425 137.48 130.156 149.749 130.156 164.832C130.156 179.915 142.425 192.185 157.508 192.185H180.953C204.659 192.185 223.936 211.462 223.936 235.168C223.936 258.873 204.659 278.15 180.953 278.15H135.366V293.78H180.953C213.282 293.78 239.566 267.496 239.566 235.168C239.566 202.84 213.282 176.555 180.953 176.555Z" fill="#2D2926"/>
</svg>
