<svg width="50" height="50" viewBox="0 0 50 50" fill="none" xmlns="http://www.w3.org/2000/svg">
<rect x="0.5" y="0.5" width="49" height="49" rx="24.5" stroke="white"/>
<path d="M34.311 13.709C33.9194 13.709 33.5366 13.8251 33.211 14.0427C32.8854 14.2603 32.6316 14.5695 32.4817 14.9313C32.3319 15.2931 32.2926 15.6912 32.369 16.0753C32.4454 16.4594 32.634 16.8122 32.9109 17.0891C33.1878 17.366 33.5406 17.5546 33.9247 17.631C34.3088 17.7074 34.7069 17.6681 35.0687 17.5183C35.4305 17.3684 35.7397 17.1146 35.9573 16.789C36.1749 16.4634 36.291 16.0806 36.291 15.689C36.291 15.1639 36.0824 14.6603 35.7111 14.2889C35.3397 13.9176 34.8361 13.709 34.311 13.709ZM41.901 17.702C41.8689 16.333 41.6125 14.9785 41.142 13.6925C40.7225 12.5922 40.0695 11.5958 39.228 10.772C38.411 9.92625 37.4123 9.27739 36.3075 8.8745C35.0249 8.38967 33.6689 8.1274 32.298 8.099C30.549 8 29.988 8 25.5 8C21.012 8 20.451 8 18.702 8.099C17.3311 8.1274 15.9751 8.38967 14.6925 8.8745C13.5898 9.28147 12.5919 9.92977 11.772 10.772C10.9263 11.589 10.2774 12.5877 9.8745 13.6925C9.38967 14.9751 9.1274 16.3311 9.099 17.702C9 19.451 9 20.012 9 24.5C9 28.988 9 29.549 9.099 31.298C9.1274 32.6689 9.38967 34.0249 9.8745 35.3075C10.2774 36.4123 10.9263 37.411 11.772 38.228C12.5919 39.0702 13.5898 39.7185 14.6925 40.1255C15.9751 40.6103 17.3311 40.8726 18.702 40.901C20.451 41 21.012 41 25.5 41C29.988 41 30.549 41 32.298 40.901C33.6689 40.8726 35.0249 40.6103 36.3075 40.1255C37.4123 39.7226 38.411 39.0737 39.228 38.228C40.0732 37.4073 40.7268 36.41 41.142 35.3075C41.6125 34.0215 41.8689 32.667 41.901 31.298C41.901 29.549 42 28.988 42 24.5C42 20.012 42 19.451 41.901 17.702ZM38.931 31.1C38.919 32.1474 38.7293 33.1851 38.37 34.169C38.1065 34.8871 37.6834 35.5359 37.1325 36.0665C36.5973 36.6118 35.9498 37.0341 35.235 37.304C34.2511 37.6633 33.2134 37.853 32.166 37.865C30.516 37.9475 29.9055 37.964 25.566 37.964C21.2265 37.964 20.616 37.964 18.966 37.865C17.8785 37.8854 16.7956 37.7179 15.765 37.37C15.0815 37.0863 14.4637 36.6651 13.95 36.1325C13.4023 35.6024 12.9845 34.9531 12.729 34.235C12.3262 33.237 12.1027 32.1757 12.069 31.1C12.069 29.45 11.97 28.8395 11.97 24.5C11.97 20.1605 11.97 19.55 12.069 17.9C12.0764 16.8292 12.2719 15.7681 12.6465 14.765C12.937 14.0686 13.3828 13.4477 13.95 12.95C14.4513 12.3827 15.0708 11.9321 15.765 11.63C16.7708 11.2671 17.8308 11.0774 18.9 11.069C20.55 11.069 21.1605 10.97 25.5 10.97C29.8395 10.97 30.45 10.97 32.1 11.069C33.1474 11.081 34.1851 11.2707 35.169 11.63C35.9188 11.9083 36.5918 12.3607 37.1325 12.95C37.6732 13.4568 38.0957 14.0765 38.37 14.765C38.7367 15.7697 38.9265 16.8304 38.931 17.9C39.0135 19.55 39.03 20.1605 39.03 24.5C39.03 28.8395 39.0135 29.45 38.931 31.1ZM25.5 16.0355C23.8266 16.0388 22.1917 16.538 20.8019 17.47C19.4121 18.4021 18.3297 19.7252 17.6916 21.2722C17.0535 22.8192 16.8882 24.5206 17.2167 26.1614C17.5451 27.8023 18.3526 29.309 19.537 30.4911C20.7215 31.6732 22.2297 32.4778 23.8712 32.803C25.5127 33.1283 27.2138 32.9597 28.7595 32.3186C30.3052 31.6774 31.6262 30.5925 32.5556 29.2009C33.485 27.8093 33.981 26.1734 33.981 24.5C33.9832 23.3864 33.7652 22.2834 33.3395 21.2544C32.9139 20.2254 32.289 19.2906 31.5008 18.504C30.7126 17.7173 29.7767 17.0943 28.7469 16.6706C27.717 16.247 26.6136 16.0311 25.5 16.0355ZM25.5 29.9945C24.4133 29.9945 23.351 29.6723 22.4474 29.0685C21.5439 28.4648 20.8396 27.6066 20.4237 26.6027C20.0079 25.5987 19.8991 24.4939 20.1111 23.4281C20.3231 22.3622 20.8464 21.3832 21.6148 20.6148C22.3832 19.8464 23.3622 19.3231 24.4281 19.1111C25.4939 18.8991 26.5987 19.0079 27.6027 19.4237C28.6066 19.8396 29.4648 20.5439 30.0685 21.4474C30.6723 22.351 30.9945 23.4133 30.9945 24.5C30.9945 25.2215 30.8524 25.936 30.5763 26.6027C30.3001 27.2693 29.8954 27.875 29.3852 28.3852C28.875 28.8954 28.2693 29.3001 27.6027 29.5763C26.936 29.8524 26.2215 29.9945 25.5 29.9945Z" fill="white"/>
</svg>
