<svg width="50" height="50" viewBox="0 0 50 50" fill="none" xmlns="http://www.w3.org/2000/svg">
<path d="M14.5834 45.8334C13.4375 45.8334 12.4566 45.4254 11.6407 44.6094C10.8247 43.7934 10.4167 42.8125 10.4167 41.6667C10.4167 40.5209 10.8247 39.54 11.6407 38.724C12.4566 37.908 13.4375 37.5 14.5834 37.5C15.7292 37.5 16.7101 37.908 17.5261 38.724C18.3421 39.54 18.75 40.5209 18.75 41.6667C18.75 42.8125 18.3421 43.7934 17.5261 44.6094C16.7101 45.4254 15.7292 45.8334 14.5834 45.8334ZM35.4167 45.8334C34.2709 45.8334 33.29 45.4254 32.474 44.6094C31.658 43.7934 31.25 42.8125 31.25 41.6667C31.25 40.5209 31.658 39.54 32.474 38.724C33.29 37.908 34.2709 37.5 35.4167 37.5C36.5625 37.5 37.5434 37.908 38.3594 38.724C39.1754 39.54 39.5834 40.5209 39.5834 41.6667C39.5834 42.8125 39.1754 43.7934 38.3594 44.6094C37.5434 45.4254 36.5625 45.8334 35.4167 45.8334ZM12.8125 12.5L17.8125 22.9167H32.3959L38.125 12.5H12.8125ZM10.8334 8.33335H41.5625C42.3612 8.33335 42.9688 8.68926 43.3855 9.40106C43.8021 10.1129 43.8195 10.8334 43.4375 11.5625L36.0417 24.8959C35.6598 25.5903 35.1476 26.1285 34.5052 26.5104C33.8629 26.8924 33.1598 27.0834 32.3959 27.0834H16.875L14.5834 31.25H39.5834V35.4167H14.5834C13.0209 35.4167 11.8403 34.7309 11.0417 33.3594C10.2431 31.9879 10.2084 30.625 10.9375 29.2709L13.75 24.1667L6.25004 8.33335H2.08337V4.16669H8.85421L10.8334 8.33335Z" fill="#010714"/>
</svg>
