<svg width="50" height="50" viewBox="0 0 50 50" fill="none" xmlns="http://www.w3.org/2000/svg">
<mask id="mask0_69_665" style="mask-type:alpha" maskUnits="userSpaceOnUse" x="0" y="0" width="50" height="50">
<rect width="50" height="50" fill="#D9D9D9"/>
</mask>
<g mask="url(#mask0_69_665)">
<path d="M15.4348 28.913C14.4783 28.913 13.6594 28.5725 12.9783 27.8913C12.2971 27.2101 11.9565 26.3913 11.9565 25.4348C11.9565 24.4783 12.2971 23.6594 12.9783 22.9783C13.6594 22.2971 14.4783 21.9565 15.4348 21.9565C16.3913 21.9565 17.2101 22.2971 17.8913 22.9783C18.5725 23.6594 18.913 24.4783 18.913 25.4348C18.913 26.3913 18.5725 27.2101 17.8913 27.8913C17.2101 28.5725 16.3913 28.913 15.4348 28.913ZM15.4348 35.8696C12.5362 35.8696 10.0725 34.8551 8.04348 32.8261C6.01449 30.7971 5 28.3333 5 25.4348C5 22.5362 6.01449 20.0725 8.04348 18.0435C10.0725 16.0145 12.5362 15 15.4348 15C17.3768 15 19.1377 15.4783 20.7174 16.4348C22.2971 17.3913 23.5507 18.6522 24.4783 20.2174H39.7826L45 25.4348L37.1739 33.2609L33.6957 30.6522L30.2174 33.2609L26.5217 30.6522H24.4783C23.5507 32.2174 22.2971 33.4783 20.7174 34.4348C19.1377 35.3913 17.3768 35.8696 15.4348 35.8696ZM15.4348 32.3913C17.058 32.3913 18.4855 31.8986 19.7174 30.913C20.9493 29.9275 21.7681 28.6812 22.1739 27.1739H27.6087L30.1304 28.9565L33.6957 26.3043L36.7826 28.6957L40.0435 25.4348L38.3043 23.6957H22.1739C21.7681 22.1884 20.9493 20.942 19.7174 19.9565C18.4855 18.971 17.058 18.4783 15.4348 18.4783C13.5217 18.4783 11.8841 19.1594 10.5217 20.5217C9.15942 21.8841 8.47826 23.5217 8.47826 25.4348C8.47826 27.3478 9.15942 28.9855 10.5217 30.3478C11.8841 31.7101 13.5217 32.3913 15.4348 32.3913Z" fill="#1C1B1F"/>
</g>
</svg>
