<svg width="50" height="50" viewBox="0 0 50 50" fill="none" xmlns="http://www.w3.org/2000/svg">
<path d="M42.6688 32.2641L39.2313 28.8266C38.2066 27.8101 36.8235 27.237 35.3802 27.2309C33.9369 27.2247 32.5489 27.786 31.5156 28.7937C30.9643 29.3483 30.2369 29.6933 29.4587 29.7694C28.6804 29.8455 27.9 29.6481 27.2516 29.2109C24.6925 27.5031 22.4941 25.3089 20.7813 22.7531C20.3518 22.0975 20.1615 21.3139 20.2423 20.5344C20.3232 19.7548 20.6702 19.027 21.225 18.4734C22.2236 17.4392 22.7777 16.0551 22.7686 14.6175C22.7596 13.1798 22.1881 11.8029 21.1766 10.7812L17.7391 7.34375C16.7099 6.31814 15.3162 5.74225 13.8633 5.74225C12.4104 5.74225 11.0167 6.31814 9.98752 7.34375L8.99846 8.33438C3.84221 13.4906 4.22814 24.3312 14.9563 35.0531C21.425 41.5234 27.936 44.2328 33.2156 44.2328C34.7698 44.2846 36.3187 44.0265 37.7722 43.4736C39.2256 42.9207 40.5544 42.0841 41.6813 41.0125L42.6719 40.0219C43.6994 38.9923 44.2762 37.5969 44.2756 36.1423C44.275 34.6877 43.6971 33.2928 42.6688 32.2641ZM40.4594 37.8125L39.4688 38.8031C35.4063 42.8656 26.4391 42.1234 17.1625 32.8453C7.88596 23.5672 7.14221 14.5937 11.2047 10.5312L12.1875 9.54219C12.63 9.10128 13.2292 8.85371 13.8539 8.85371C14.4786 8.85371 15.0778 9.10128 15.5203 9.54219L18.9578 12.9797C19.3923 13.4163 19.6389 14.0055 19.6451 14.6214C19.6512 15.2374 19.4163 15.8314 18.9906 16.2766C17.9348 17.3391 17.2762 18.7322 17.1252 20.2225C16.9741 21.7128 17.3398 23.2097 18.161 24.4625C20.1071 27.3749 22.6098 29.8738 25.525 31.8156C26.7741 32.6369 28.2671 33.0047 29.7547 32.8577C31.2422 32.7107 32.6344 32.0577 33.6985 31.0078C34.1428 30.5771 34.7384 30.3379 35.3573 30.3417C35.9761 30.3455 36.5688 30.592 37.0078 31.0281L40.4453 34.4656C40.6669 34.684 40.8431 34.944 40.9637 35.2307C41.0844 35.5174 41.1472 35.8251 41.1485 36.1361C41.1498 36.4472 41.0896 36.7554 40.9714 37.0431C40.8531 37.3308 40.6791 37.5923 40.4594 37.8125Z" fill="black"/>
</svg>
