<svg width="50" height="50" viewBox="0 0 50 50" fill="none" xmlns="http://www.w3.org/2000/svg">
<path d="M37.2917 11H12.625C10.0708 11 8 13.0708 8 15.625V34.125C8 36.6792 10.0708 38.75 12.625 38.75H37.2917C39.8458 38.75 41.9167 36.6792 41.9167 34.125V15.625C41.9167 13.0708 39.8458 11 37.2917 11ZM37.2917 14.0833C37.4697 14.0833 37.6409 14.1134 37.7996 14.1693L24.9583 24.4426L12.117 14.1693C12.2803 14.1121 12.452 14.083 12.625 14.0833H37.2917ZM37.2917 35.6667H12.625C12.2161 35.6667 11.824 35.5042 11.5349 35.2151C11.2458 34.926 11.0833 34.5339 11.0833 34.125V17.2908L23.9952 27.6203C24.2765 27.8458 24.6172 27.9583 24.9583 27.9583C25.2994 27.9583 25.6401 27.8458 25.9215 27.6203L38.8333 17.2908V34.125C38.8333 34.5339 38.6709 34.926 38.3818 35.2151C38.0927 35.5042 37.7005 35.6667 37.2917 35.6667Z" fill="black"/>
</svg>
