<svg xmlns="http://www.w3.org/2000/svg" xmlns:xlink="http://www.w3.org/1999/xlink" width="500" zoomAndPan="magnify" viewBox="0 0 375 374.999991" height="500" preserveAspectRatio="xMidYMid meet" version="1.0"><defs><clipPath id="5a8ca1cea0"><path d="M 189 192 L 368 192 L 368 370.941406 L 189 370.941406 Z M 189 192 " clip-rule="nonzero"/></clipPath><clipPath id="8cd9de873a"><path d="M 37.5 4.191406 L 278 4.191406 L 278 334 L 37.5 334 Z M 37.5 4.191406 " clip-rule="nonzero"/></clipPath></defs><rect x="-37.5" width="450" fill="#ffffff" y="-37.499999" height="449.999989" fill-opacity="1"/><rect x="-37.5" width="450" fill="#ffffff" y="-37.499999" height="449.999989" fill-opacity="1"/><g clip-path="url(#5a8ca1cea0)"><path fill="#021d4f" d="M 278.640625 192.195312 C 229.414062 192.195312 189.359375 232.246094 189.359375 281.476562 C 189.359375 330.707031 229.414062 370.757812 278.640625 370.757812 C 327.871094 370.757812 367.925781 330.707031 367.925781 281.476562 C 367.925781 232.246094 327.871094 192.195312 278.640625 192.195312 Z M 270.417969 324.449219 L 227.796875 283.84375 L 247.253906 263.433594 L 270.417969 285.496094 L 310.03125 247.777344 L 329.488281 268.1875 Z M 270.417969 324.449219 " fill-opacity="1" fill-rule="nonzero"/></g><g clip-path="url(#8cd9de873a)"><path fill="#021d4f" d="M 277.308594 164.070312 L 272.601562 117.011719 L 236.351562 117.011719 L 236.351562 74.71875 C 236.351562 35.859375 204.734375 4.234375 165.863281 4.234375 C 126.996094 4.234375 95.378906 35.859375 95.378906 74.71875 L 95.378906 117.011719 L 59.125 117.011719 L 37.511719 333.167969 L 173.308594 333.167969 C 165.609375 317.542969 161.164062 300.039062 161.164062 281.476562 C 161.164062 217.148438 213.148438 164.792969 277.308594 164.070312 Z M 123.574219 74.71875 C 123.574219 51.40625 142.542969 32.429688 165.863281 32.429688 C 189.1875 32.429688 208.15625 51.40625 208.15625 74.71875 L 208.15625 117.011719 L 123.574219 117.011719 Z M 123.574219 74.71875 " fill-opacity="1" fill-rule="nonzero"/></g></svg>