<svg width="50" height="50" viewBox="0 0 50 50" fill="none" xmlns="http://www.w3.org/2000/svg">
<path d="M33.2034 27.9347C32.8719 27.7689 30.7168 26.7742 30.3852 26.6084C30.0536 26.4427 29.7221 26.4427 29.3905 26.7742C29.059 27.1058 28.3959 28.1004 28.0643 28.432C27.8986 28.7635 27.567 28.7635 27.2354 28.5978C26.075 28.1004 24.9146 27.4373 23.9199 26.6084C23.091 25.7796 22.2621 24.7849 21.599 23.7902C21.4333 23.4587 21.599 23.1271 21.7648 22.9614C21.9306 22.7956 22.0964 22.464 22.4279 22.2982C22.5937 22.1325 22.7595 21.8009 22.7595 21.6351C22.9253 21.4694 22.9253 21.1378 22.7595 20.972C22.5937 20.8063 21.7648 18.8169 21.4333 17.9881C21.2675 16.8276 20.9359 16.8276 20.6044 16.8276H19.7755C19.4439 16.8276 18.9466 17.1592 18.7808 17.3249C17.7862 18.3196 17.2888 19.48 17.2888 20.8063C17.4546 22.2982 17.9519 23.7902 18.9466 25.1165C20.7702 27.7689 23.091 29.924 25.9092 31.2502C26.7381 31.5817 27.4012 31.9133 28.2301 32.0791C29.059 32.4106 29.8879 32.4106 30.8825 32.2449C32.043 32.0791 33.0376 31.2502 33.7007 30.2555C34.0323 29.5924 34.0323 28.9293 33.8665 28.2662L33.2034 27.9347ZM37.3478 12.849C30.8825 6.38368 20.4386 6.38368 13.9733 12.849C8.66845 18.1538 7.67379 26.2769 11.3209 32.7422L9 41.1968L17.7862 38.8759C20.2728 40.2021 22.9252 40.8652 25.5777 40.8652C34.6954 40.8652 41.9896 33.5711 41.9896 24.4533C42.1554 20.1431 40.3318 15.9987 37.3478 12.849ZM32.8719 36.0577C30.7168 37.3839 28.2301 38.2128 25.5777 38.2128C23.091 38.2128 20.7702 37.5497 18.6151 36.3893L18.1177 36.0577L12.9786 37.3839L14.3049 32.4106L13.9733 31.9133C9.99466 25.2822 11.984 16.9934 18.4493 12.849C24.9146 8.70455 33.2034 10.8596 37.1821 17.1592C41.1607 23.6245 39.3372 32.0791 32.8719 36.0577Z" fill="black"/>
</svg>
